<svg width="60" height="60" fill="none" xmlns="http://www.w3.org/2000/svg"><path d="M40.32 16.458h6.222a.846.846 0 1 0 0-1.692H40.32a.846.846 0 1 0 0 1.692ZM30 51.24c-.375.001-.75-.02-1.122-.06A10.098 10.098 0 0 1 24.96 32.4V14.304a5.046 5.046 0 0 1 6.066-4.938 5.112 5.112 0 0 1 4.014 5.076V32.4A10.092 10.092 0 0 1 30 51.24Zm0-39.282a2.352 2.352 0 0 0-2.34 2.346v19.8l-.78.36a7.398 7.398 0 1 0 6.24 0l-.78-.36V14.442A2.448 2.448 0 0 0 30.498 12a2.398 2.398 0 0 0-.498-.042Z" fill="#fff"/><path d="M30.006 43.446a2.85 2.85 0 1 0 0-5.7 2.85 2.85 0 0 0 0 5.7Z" fill="#fff"/><path d="M30 39.6a.75.75 0 0 1-.75-.75v-9.882a.75.75 0 1 1 1.5 0v9.858a.75.75 0 0 1-.75.774Z" fill="#fff"/></svg>