<svg width="60" height="60" viewBox="0 0 60 60" fill="none" xmlns="http://www.w3.org/2000/svg">
<path d="M40.8541 16.458H47.8261C48.0504 16.458 48.2656 16.3689 48.4243 16.2102C48.5829 16.0515 48.6721 15.8364 48.6721 15.612C48.6721 15.3876 48.5829 15.1724 48.4243 15.0138C48.2656 14.8551 48.0504 14.766 47.8261 14.766H40.8541C40.6297 14.766 40.4145 14.8551 40.2558 15.0138C40.0972 15.1724 40.0081 15.3876 40.0081 15.612C40.0081 15.8364 40.0972 16.0515 40.2558 16.2102C40.4145 16.3689 40.6297 16.458 40.8541 16.458Z" fill="white"></path>
<path d="M43.494 12.126V19.098C43.494 19.2091 43.5159 19.3191 43.5584 19.4218C43.6009 19.5244 43.6632 19.6177 43.7418 19.6962C43.8204 19.7748 43.9136 19.8371 44.0163 19.8796C44.1189 19.9221 44.2289 19.944 44.34 19.944C44.4511 19.944 44.5611 19.9221 44.6638 19.8796C44.7664 19.8371 44.8597 19.7748 44.9382 19.6962C45.0168 19.6177 45.0791 19.5244 45.1216 19.4218C45.1641 19.3191 45.186 19.2091 45.186 19.098V12.126C45.186 12.0149 45.1641 11.9049 45.1216 11.8023C45.0791 11.6996 45.0168 11.6064 44.9382 11.5278C44.8597 11.4493 44.7664 11.3869 44.6638 11.3444C44.5611 11.3019 44.4511 11.28 44.34 11.28C44.2289 11.28 44.1189 11.3019 44.0163 11.3444C43.9136 11.3869 43.8204 11.4493 43.7418 11.5278C43.6632 11.6064 43.6009 11.6996 43.5584 11.8023C43.5159 11.9049 43.494 12.0149 43.494 12.126Z" fill="white"></path>
<path d="M30 51.24C29.6252 51.241 29.2506 51.2209 28.878 51.18C26.7653 50.942 24.7815 50.0432 23.2095 48.6117C21.6375 47.1802 20.5575 45.2891 20.1232 43.2078C19.689 41.1265 19.9228 38.9612 20.7913 37.0206C21.6598 35.0799 23.1187 33.4629 24.96 32.4V14.304C24.9606 13.5551 25.1278 12.8158 25.4496 12.1396C25.7714 11.4634 26.2396 10.8673 26.8204 10.3945C27.4012 9.92177 28.0799 9.58419 28.8073 9.40629C29.5347 9.22839 30.2926 9.21463 31.026 9.36601C32.1779 9.61918 33.2069 10.2629 33.9385 11.188C34.67 12.1131 35.0592 13.2627 35.04 14.442V32.4C36.9675 33.5088 38.4749 35.2231 39.3279 37.2766C40.181 39.3302 40.3319 41.6079 39.7572 43.7561C39.1825 45.9042 37.9145 47.8024 36.1501 49.1557C34.3857 50.5091 32.2237 51.2418 30 51.24ZM30 11.958C29.3793 11.9612 28.7851 12.2095 28.3468 12.649C27.9084 13.0884 27.6616 13.6833 27.66 14.304V34.104L26.88 34.464C25.3526 35.1744 24.1135 36.3848 23.3673 37.895C22.6212 39.4052 22.4128 41.1249 22.7766 42.7696C23.1404 44.4144 24.0546 45.8857 25.368 46.9404C26.6815 47.9951 28.3155 48.5699 30 48.5699C31.6845 48.5699 33.3185 47.9951 34.632 46.9404C35.9454 45.8857 36.8596 44.4144 37.2234 42.7696C37.5872 41.1249 37.3788 39.4052 36.6327 37.895C35.8865 36.3848 34.6474 35.1744 33.12 34.464L32.34 34.104V14.442C32.3559 13.8863 32.1821 13.3417 31.8474 12.8979C31.5126 12.4541 31.0367 12.1374 30.498 12C30.3339 11.9687 30.167 11.9546 30 11.958Z" fill="white"></path>
<path d="M30.006 43.446C31.58 43.446 32.856 42.17 32.856 40.596C32.856 39.022 31.58 37.746 30.006 37.746C28.432 37.746 27.156 39.022 27.156 40.596C27.156 42.17 28.432 43.446 30.006 43.446Z" fill="white"></path>
<path d="M30 39.6C29.8011 39.6 29.6103 39.521 29.4697 39.3803C29.329 39.2397 29.25 39.0489 29.25 38.85V21.078C29.25 20.8791 29.329 20.6883 29.4697 20.5477C29.6103 20.407 29.8011 20.328 30 20.328C30.1989 20.328 30.3897 20.407 30.5303 20.5477C30.671 20.6883 30.75 20.8791 30.75 21.078V38.826C30.7532 38.9265 30.7362 39.0266 30.6999 39.1204C30.6637 39.2142 30.609 39.2997 30.539 39.3719C30.469 39.4441 30.3853 39.5015 30.2927 39.5407C30.2001 39.5799 30.1005 39.6001 30 39.6Z" fill="white"></path>
</svg>
