<svg width="194" height="201" viewBox="0 0 194 201" fill="none" xmlns="http://www.w3.org/2000/svg">
<g filter="url(#filter0_i_13_1150)">
<path d="M125.387 58.8842C125.57 57.8513 125.665 56.7887 125.665 55.7041C125.665 45.5582 117.333 37.3333 107.055 37.3333C99.4139 37.3333 92.8485 41.8789 89.9823 48.3802C87.6604 46.4013 84.6475 45.2065 81.3549 45.2065C74.0134 45.2065 68.0618 51.1467 68.0618 58.4743C68.0618 58.8824 68.0803 59.2861 68.1164 59.6848C64.5853 61.3921 62.1538 64.9746 62.1538 69.1178C62.1538 74.9154 66.915 79.6154 72.7883 79.6154H123.007C128.88 79.6154 133.641 74.9154 133.641 69.1178C133.641 64.128 130.114 59.9514 125.387 58.8842Z" fill="url(#paint0_linear_13_1150)"/>
</g>
<g filter="url(#filter1_f_13_1150)">
<path d="M96.9623 53.0841C86.0359 67.9193 84.1412 88.1653 93.7798 104.86C103.418 121.554 121.899 130.037 140.21 127.992C136.317 133.278 131.277 137.877 125.203 141.384C102.084 154.732 72.7442 147.196 59.671 124.553C46.5979 101.909 54.7417 72.7326 77.8608 59.3848C83.9345 55.8781 90.4376 53.8128 96.9623 53.0841Z" fill="#FFEE94"/>
</g>
<g filter="url(#filter2_i_13_1150)">
<path d="M95.9435 59.3356C85.9695 72.8776 84.24 91.3588 93.0385 106.598C101.837 121.838 118.707 129.58 135.422 127.714C131.868 132.539 127.267 136.737 121.722 139.938C100.619 152.123 73.8365 145.244 61.9029 124.574C49.9693 103.905 57.4032 77.2714 78.5071 65.0871C84.0514 61.8861 89.9876 60.0008 95.9435 59.3356Z" fill="url(#paint1_linear_13_1150)"/>
</g>
<g filter="url(#filter3_b_13_1150)">
<g filter="url(#filter4_i_13_1150)">
<path d="M140.81 140.063C141.037 138.774 141.156 137.449 141.156 136.096C141.156 123.439 130.791 113.179 118.006 113.179C108.502 113.179 100.335 118.85 96.7698 126.96C93.8816 124.491 90.1337 123.001 86.0381 123.001C76.9059 123.001 69.5028 130.411 69.5028 139.551C69.5028 140.06 69.5258 140.564 69.5707 141.061C65.1783 143.191 62.1538 147.66 62.1538 152.828C62.1538 160.06 68.0763 165.923 75.3821 165.923H137.849C145.154 165.923 151.077 160.06 151.077 152.828C151.077 146.604 146.69 141.394 140.81 140.063Z" fill="url(#paint2_linear_13_1150)"/>
</g>
</g>
<defs>
<filter id="filter0_i_13_1150" x="62.1538" y="37.3333" width="71.4872" height="52.282" filterUnits="userSpaceOnUse" color-interpolation-filters="sRGB">
<feFlood flood-opacity="0" result="BackgroundImageFix"/>
<feBlend mode="normal" in="SourceGraphic" in2="BackgroundImageFix" result="shape"/>
<feColorMatrix in="SourceAlpha" type="matrix" values="0 0 0 0 0 0 0 0 0 0 0 0 0 0 0 0 0 0 127 0" result="hardAlpha"/>
<feOffset dy="11"/>
<feGaussianBlur stdDeviation="5"/>
<feComposite in2="hardAlpha" operator="arithmetic" k2="-1" k3="1"/>
<feColorMatrix type="matrix" values="0 0 0 0 1 0 0 0 0 1 0 0 0 0 1 0 0 0 1 0"/>
<feBlend mode="normal" in2="shape" result="effect1_innerShadow_13_1150"/>
</filter>
<filter id="filter1_f_13_1150" x="0.433472" y="0.084137" width="192.777" height="200.9" filterUnits="userSpaceOnUse" color-interpolation-filters="sRGB">
<feFlood flood-opacity="0" result="BackgroundImageFix"/>
<feBlend mode="normal" in="SourceGraphic" in2="BackgroundImageFix" result="shape"/>
<feGaussianBlur stdDeviation="26.5" result="effect1_foregroundBlur_13_1150"/>
</filter>
<filter id="filter2_i_13_1150" x="56.209" y="59.3356" width="79.2126" height="90.6282" filterUnits="userSpaceOnUse" color-interpolation-filters="sRGB">
<feFlood flood-opacity="0" result="BackgroundImageFix"/>
<feBlend mode="normal" in="SourceGraphic" in2="BackgroundImageFix" result="shape"/>
<feColorMatrix in="SourceAlpha" type="matrix" values="0 0 0 0 0 0 0 0 0 0 0 0 0 0 0 0 0 0 127 0" result="hardAlpha"/>
<feOffset dy="4"/>
<feGaussianBlur stdDeviation="4"/>
<feComposite in2="hardAlpha" operator="arithmetic" k2="-1" k3="1"/>
<feColorMatrix type="matrix" values="0 0 0 0 1 0 0 0 0 1 0 0 0 0 1 0 0 0 0.55 0"/>
<feBlend mode="normal" in2="shape" result="effect1_innerShadow_13_1150"/>
</filter>
<filter id="filter3_b_13_1150" x="35.1538" y="86.1795" width="142.923" height="106.744" filterUnits="userSpaceOnUse" color-interpolation-filters="sRGB">
<feFlood flood-opacity="0" result="BackgroundImageFix"/>
<feGaussianBlur in="BackgroundImageFix" stdDeviation="13.5"/>
<feComposite in2="SourceAlpha" operator="in" result="effect1_backgroundBlur_13_1150"/>
<feBlend mode="normal" in="SourceGraphic" in2="effect1_backgroundBlur_13_1150" result="shape"/>
</filter>
<filter id="filter4_i_13_1150" x="62.1538" y="113.179" width="88.9231" height="62.7436" filterUnits="userSpaceOnUse" color-interpolation-filters="sRGB">
<feFlood flood-opacity="0" result="BackgroundImageFix"/>
<feBlend mode="normal" in="SourceGraphic" in2="BackgroundImageFix" result="shape"/>
<feColorMatrix in="SourceAlpha" type="matrix" values="0 0 0 0 0 0 0 0 0 0 0 0 0 0 0 0 0 0 127 0" result="hardAlpha"/>
<feOffset dy="11"/>
<feGaussianBlur stdDeviation="5"/>
<feComposite in2="hardAlpha" operator="arithmetic" k2="-1" k3="1"/>
<feColorMatrix type="matrix" values="0 0 0 0 1 0 0 0 0 1 0 0 0 0 1 0 0 0 1 0"/>
<feBlend mode="normal" in2="shape" result="effect1_innerShadow_13_1150"/>
</filter>
<linearGradient id="paint0_linear_13_1150" x1="66.7007" y1="75.8402" x2="138.629" y2="21.8533" gradientUnits="userSpaceOnUse">
<stop stop-color="white"/>
<stop offset="1" stop-color="white" stop-opacity="0.58"/>
</linearGradient>
<linearGradient id="paint1_linear_13_1150" x1="98.1154" y1="52.1538" x2="82.2813" y2="148.03" gradientUnits="userSpaceOnUse">
<stop stop-color="#FFEE94"/>
<stop offset="1" stop-color="#FF9900"/>
</linearGradient>
<linearGradient id="paint2_linear_13_1150" x1="67.8097" y1="161.214" x2="157.464" y2="94.1127" gradientUnits="userSpaceOnUse">
<stop stop-color="white"/>
<stop offset="1" stop-color="white" stop-opacity="0.58"/>
</linearGradient>
</defs>
</svg>
