<svg width="262" height="173" viewBox="0 0 262 173" fill="none" xmlns="http://www.w3.org/2000/svg">
<g filter="url(#filter0_f_13_1168)">
<rect x="78.5641" y="79.3333" width="104.615" height="15.2564" rx="7.62821" fill="#00BCFF"/>
</g>
<g filter="url(#filter1_b_13_1168)">
<g filter="url(#filter2_i_13_1168)">
<path d="M183.069 41.4139C183.419 39.4289 183.601 37.387 183.601 35.3028C183.601 15.8056 167.648 0 147.969 0C133.339 0 120.769 8.73524 115.281 21.2285C110.836 17.4258 105.067 15.1298 98.7631 15.1298C84.7067 15.1298 73.3117 26.5449 73.3117 40.6263C73.3117 41.4104 73.3471 42.1862 73.4162 42.9523C66.6554 46.2333 62 53.1177 62 61.0795C62 72.2207 71.116 81.2525 82.3611 81.2525H178.511C189.756 81.2525 198.872 72.2207 198.872 61.0795C198.872 51.4909 192.12 43.4647 183.069 41.4139Z" fill="url(#paint0_linear_13_1168)"/>
</g>
</g>
<path d="M75.6875 92C73.651 92 72 93.6565 72 95.7C72 97.7435 73.651 99.4 75.6875 99.4H142.062C144.099 99.4 145.75 97.7435 145.75 95.7C145.75 93.6565 144.099 92 142.062 92H75.6875Z" fill="white"/>
<path d="M97.8125 106.8C95.776 106.8 94.125 108.457 94.125 110.5C94.125 112.543 95.776 114.2 97.8125 114.2H119.938C121.974 114.2 123.625 112.543 123.625 110.5C123.625 108.457 121.974 106.8 119.938 106.8H97.8125Z" fill="white"/>
<path d="M131 110.5C131 108.457 132.651 106.8 134.688 106.8H186.312C188.349 106.8 190 108.457 190 110.5C190 112.543 188.349 114.2 186.312 114.2H134.688C132.651 114.2 131 112.543 131 110.5Z" fill="white"/>
<path d="M105.188 121.6C103.151 121.6 101.5 123.257 101.5 125.3C101.5 127.343 103.151 129 105.188 129H171.562C173.599 129 175.25 127.343 175.25 125.3C175.25 123.257 173.599 121.6 171.562 121.6H105.188Z" fill="white"/>
<defs>
<filter id="filter0_f_13_1168" x="0.564087" y="1.33331" width="260.615" height="171.256" filterUnits="userSpaceOnUse" color-interpolation-filters="sRGB">
<feFlood flood-opacity="0" result="BackgroundImageFix"/>
<feBlend mode="normal" in="SourceGraphic" in2="BackgroundImageFix" result="shape"/>
<feGaussianBlur stdDeviation="39" result="effect1_foregroundBlur_13_1168"/>
</filter>
<filter id="filter1_b_13_1168" x="35" y="-27" width="190.872" height="135.253" filterUnits="userSpaceOnUse" color-interpolation-filters="sRGB">
<feFlood flood-opacity="0" result="BackgroundImageFix"/>
<feGaussianBlur in="BackgroundImageFix" stdDeviation="13.5"/>
<feComposite in2="SourceAlpha" operator="in" result="effect1_backgroundBlur_13_1168"/>
<feBlend mode="normal" in="SourceGraphic" in2="effect1_backgroundBlur_13_1168" result="shape"/>
</filter>
<filter id="filter2_i_13_1168" x="62" y="0" width="136.872" height="91.2525" filterUnits="userSpaceOnUse" color-interpolation-filters="sRGB">
<feFlood flood-opacity="0" result="BackgroundImageFix"/>
<feBlend mode="normal" in="SourceGraphic" in2="BackgroundImageFix" result="shape"/>
<feColorMatrix in="SourceAlpha" type="matrix" values="0 0 0 0 0 0 0 0 0 0 0 0 0 0 0 0 0 0 127 0" result="hardAlpha"/>
<feOffset dy="11"/>
<feGaussianBlur stdDeviation="5"/>
<feComposite in2="hardAlpha" operator="arithmetic" k2="-1" k3="1"/>
<feColorMatrix type="matrix" values="0 0 0 0 1 0 0 0 0 1 0 0 0 0 1 0 0 0 1 0"/>
<feBlend mode="normal" in2="shape" result="effect1_innerShadow_13_1168"/>
</filter>
<linearGradient id="paint0_linear_13_1168" x1="70.7057" y1="73.9978" x2="208.787" y2="-29.2606" gradientUnits="userSpaceOnUse">
<stop stop-color="white"/>
<stop offset="1" stop-color="white" stop-opacity="0.58"/>
</linearGradient>
</defs>
</svg>
