<svg width="40" height="93" viewBox="0 0 40 93" fill="none" xmlns="http://www.w3.org/2000/svg">
<rect x="40" y="1.00018" width="91.2" height="40" rx="20" transform="rotate(90 40 1.00018)" fill="white" fill-opacity="0.16"/>
<rect x="40" y="39" width="52.8" height="40" rx="20" transform="rotate(90 40 39)" fill="white" fill-opacity="0.18"/>
<path d="M15.7136 36.2H17.8272V28.3932H25.3954V26.5182H17.8272V20.6205H26.1795V18.7455H15.7136V36.2Z" fill="white"/>
<path d="M28.1591 62C27.5114 58.4205 24.6477 56.3068 21.1364 56.3068C16.6705 56.3068 13.4318 59.75 13.4318 65.2727C13.4318 70.7955 16.6705 74.2386 21.1364 74.2386C24.6477 74.2386 27.5114 72.125 28.1591 68.5455H26.0455C25.5341 70.9659 23.4545 72.2614 21.1364 72.2614C17.9659 72.2614 15.4773 69.8068 15.4773 65.2727C15.4773 60.7386 17.9659 58.2841 21.1364 58.2841C23.4545 58.2841 25.5341 59.5795 26.0455 62H28.1591Z" fill="white"/>
</svg>
