<svg width="100" height="100" viewBox="0 0 100 100" fill="none" xmlns="http://www.w3.org/2000/svg">
<path d="M63.41 23.82H75.03C75.404 23.82 75.7626 23.6714 76.027 23.407C76.2914 23.1426 76.44 22.784 76.44 22.41C76.44 22.036 76.2914 21.6774 76.027 21.413C75.7626 21.1486 75.404 21 75.03 21H63.41C63.036 21 62.6774 21.1486 62.413 21.413C62.1486 21.6774 62 22.036 62 22.41C62 22.784 62.1486 23.1426 62.413 23.407C62.6774 23.6714 63.036 23.82 63.41 23.82Z" fill="white"/>
<path d="M63.41 29.82H75.03C75.404 29.82 75.7626 29.6714 76.027 29.407C76.2914 29.1426 76.44 28.784 76.44 28.41C76.44 28.036 76.2914 27.6774 76.027 27.413C75.7626 27.1486 75.404 27 75.03 27H63.41C63.036 27 62.6774 27.1486 62.413 27.413C62.1486 27.6774 62 28.036 62 28.41C62 28.784 62.1486 29.1426 62.413 29.407C62.6774 29.6714 63.036 29.82 63.41 29.82Z" fill="white"/>
<path d="M63.41 35.82H75.03C75.404 35.82 75.7626 35.6714 76.027 35.407C76.2914 35.1426 76.44 34.784 76.44 34.41C76.44 34.036 76.2914 33.6774 76.027 33.413C75.7626 33.1486 75.404 33 75.03 33H63.41C63.036 33 62.6774 33.1486 62.413 33.413C62.1486 33.6774 62 34.036 62 34.41C62 34.784 62.1486 35.1426 62.413 35.407C62.6774 35.6714 63.036 35.82 63.41 35.82Z" fill="white"/>
<path d="M63.41 41.82H75.03C75.404 41.82 75.7626 41.6714 76.027 41.407C76.2914 41.1426 76.44 40.784 76.44 40.41C76.44 40.036 76.2914 39.6774 76.027 39.413C75.7626 39.1486 75.404 39 75.03 39H63.41C63.036 39 62.6774 39.1486 62.413 39.413C62.1486 39.6774 62 40.036 62 40.41C62 40.784 62.1486 41.1426 62.413 41.407C62.6774 41.6714 63.036 41.82 63.41 41.82Z" fill="white"/>
<path d="M63.41 47.82H75.03C75.404 47.82 75.7626 47.6714 76.027 47.407C76.2914 47.1426 76.44 46.784 76.44 46.41C76.44 46.036 76.2914 45.6774 76.027 45.413C75.7626 45.1486 75.404 45 75.03 45H63.41C63.036 45 62.6774 45.1486 62.413 45.413C62.1486 45.6774 62 46.036 62 46.41C62 46.784 62.1486 47.1426 62.413 47.407C62.6774 47.6714 63.036 47.82 63.41 47.82Z" fill="white"/>
<path d="M50 85.4C49.3753 85.4016 48.7509 85.3682 48.13 85.3C44.6087 84.9033 41.3025 83.4054 38.6825 81.0195C36.0625 78.6337 34.2624 75.4818 33.5387 72.013C32.815 68.5441 33.2047 64.9354 34.6521 61.701C36.0996 58.4666 38.5311 55.7716 41.6 54V23.84C41.6009 22.5919 41.8797 21.3597 42.416 20.2327C42.9523 19.1057 43.7327 18.1122 44.7006 17.3242C45.6685 16.5363 46.7997 15.9737 48.0121 15.6772C49.2245 15.3807 50.4876 15.3577 51.71 15.61C53.6298 16.032 55.3448 17.1048 56.564 18.6467C57.7833 20.1885 58.4319 22.1046 58.4 24.07V54C61.6125 55.8479 64.1248 58.7051 65.5465 62.1277C66.9682 65.5503 67.2197 69.3466 66.262 72.9268C65.3042 76.507 63.1908 79.6707 60.2501 81.9262C57.3094 84.1818 53.7061 85.403 50 85.4V85.4ZM50 19.93C48.9655 19.9353 47.9751 20.3492 47.2446 21.0817C46.514 21.8141 46.1026 22.8056 46.1 23.84V56.84L44.8 57.44C42.2544 58.624 40.1891 60.6413 38.9455 63.1584C37.702 65.6754 37.3546 68.5415 37.9609 71.2827C38.5673 74.0239 40.0909 76.4762 42.28 78.234C44.4691 79.9918 47.1925 80.9499 50 80.9499C52.8074 80.9499 55.5309 79.9918 57.7199 78.234C59.909 76.4762 61.4327 74.0239 62.039 71.2827C62.6453 68.5415 62.298 65.6754 61.0544 63.1584C59.8109 60.6413 57.7456 58.624 55.2 57.44L53.9 56.84V24.07C53.9264 23.1438 53.6369 22.2362 53.0789 21.4965C52.5209 20.7568 51.7278 20.229 50.83 20C50.5565 19.9479 50.2783 19.9244 50 19.93V19.93Z" fill="white"/>
<path d="M50.01 72.41C52.6334 72.41 54.76 70.2833 54.76 67.66C54.76 65.0366 52.6334 62.91 50.01 62.91C47.3867 62.91 45.26 65.0366 45.26 67.66C45.26 70.2833 47.3867 72.41 50.01 72.41Z" fill="white"/>
<path d="M50 66C49.6685 66 49.3505 65.8683 49.1161 65.6339C48.8817 65.3995 48.75 65.0815 48.75 64.75V35.13C48.75 34.7985 48.8817 34.4805 49.1161 34.2461C49.3505 34.0117 49.6685 33.88 50 33.88C50.3315 33.88 50.6495 34.0117 50.8839 34.2461C51.1183 34.4805 51.25 34.7985 51.25 35.13V64.71C51.2554 64.8775 51.227 65.0443 51.1666 65.2006C51.1062 65.357 51.0149 65.4995 50.8983 65.6199C50.7817 65.7402 50.6421 65.8359 50.4878 65.9012C50.3335 65.9665 50.1676 66.0001 50 66Z" fill="white"/>
</svg>
