<svg width="55" height="55" viewBox="0 0 55 55" fill="none" xmlns="http://www.w3.org/2000/svg">
<path d="M43.3676 19.569C42.1053 19.569 40.8946 20.07 40.0015 20.9621C39.1085 21.8541 38.606 23.0642 38.6046 24.3265C38.61 24.8673 38.7086 25.4031 38.8961 25.9105H8.45905C8.05437 25.9343 7.67409 26.1119 7.396 26.4068C7.1179 26.7018 6.96301 27.0918 6.96301 27.4972C6.96301 27.9026 7.1179 28.2927 7.396 28.5876C7.67409 28.8826 8.05437 29.0601 8.45905 29.084H43.3676C43.9923 29.084 44.611 28.9609 45.1882 28.7218C45.7654 28.4827 46.2898 28.1323 46.7316 27.6905C47.1734 27.2488 47.5238 26.7243 47.7629 26.1471C48.002 25.5699 48.1251 24.9512 48.1251 24.3265C48.1251 23.7017 48.002 23.0831 47.7629 22.5059C47.5238 21.9286 47.1734 21.4042 46.7316 20.9624C46.2898 20.5206 45.7654 20.1702 45.1882 19.9311C44.611 19.692 43.9923 19.569 43.3676 19.569V19.569Z" fill="white"/>
<path d="M8.45905 22.7425H27.5001C28.5239 22.7531 29.5244 22.4364 30.3558 21.8387C31.1871 21.2409 31.8059 20.3934 32.1219 19.4194C32.4379 18.4455 32.4347 17.3961 32.1127 16.4241C31.7907 15.4521 31.1667 14.6083 30.3317 14.0157C29.4967 13.4231 28.4943 13.1126 27.4705 13.1294C26.4467 13.1463 25.455 13.4896 24.64 14.1094C23.8249 14.7291 23.2291 15.593 22.9392 16.575C22.6494 17.5571 22.6807 18.606 23.0286 19.569H8.45905C8.05437 19.5929 7.67409 19.7704 7.396 20.0654C7.1179 20.3603 6.96301 20.7504 6.96301 21.1558C6.96301 21.5612 7.1179 21.9512 7.396 22.2462C7.67409 22.5411 8.05437 22.7187 8.45905 22.7425V22.7425Z" fill="white"/>
<path d="M33.847 32.2575C33.7535 32.2575 33.66 32.2575 33.572 32.285C33.484 32.3125 33.4565 32.2575 33.3905 32.2575H8.9155C7.788 32.2575 6.875 32.967 6.875 33.847C6.875 34.727 7.788 35.431 8.9155 35.431H29.3755C29.0416 36.3815 29.0189 37.4136 29.3105 38.3779C29.6021 39.3422 30.193 40.1888 30.9976 40.795C31.8022 41.4012 32.7789 41.7357 33.7862 41.75C34.7936 41.7644 35.7793 41.4578 36.6009 40.8747C37.4225 40.2917 38.0372 39.4623 38.3561 38.5067C38.6751 37.5511 38.6817 36.5187 38.375 35.5591C38.0683 34.5995 37.4643 33.7623 36.6502 33.1688C35.8362 32.5752 34.8544 32.2561 33.847 32.2575V32.2575Z" fill="white"/>
</svg>
