<svg width="196" height="205" viewBox="0 0 196 205" fill="none" xmlns="http://www.w3.org/2000/svg">
<g filter="url(#filter0_f_13_1165)">
<path d="M98.2008 53.7423C86.9053 69.0786 84.9466 90.0084 94.9108 107.267C104.875 124.525 123.98 133.294 142.909 131.18C138.884 136.645 133.674 141.399 127.395 145.024C103.495 158.823 73.1647 151.033 59.65 127.625C46.1353 104.217 54.5542 74.0545 78.4541 60.2558C84.733 56.6307 91.4557 54.4956 98.2008 53.7423Z" fill="#FFEE94"/>
</g>
<g filter="url(#filter1_i_13_1165)">
<path d="M97.1476 60.205C86.8367 74.2044 85.0488 93.3098 94.1444 109.064C103.24 124.818 120.68 132.822 137.959 130.893C134.285 135.881 129.529 140.221 123.797 143.53C101.981 156.126 74.2938 149.015 61.9571 127.647C49.6205 106.279 57.3055 78.7465 79.1222 66.1507C84.8537 62.8416 90.9905 60.8926 97.1476 60.205Z" fill="url(#paint0_linear_13_1165)"/>
</g>
<defs>
<filter id="filter0_f_13_1165" x="0.20166" y="0.742342" width="195.708" height="204.106" filterUnits="userSpaceOnUse" color-interpolation-filters="sRGB">
<feFlood flood-opacity="0" result="BackgroundImageFix"/>
<feBlend mode="normal" in="SourceGraphic" in2="BackgroundImageFix" result="shape"/>
<feGaussianBlur stdDeviation="26.5" result="effect1_foregroundBlur_13_1165"/>
</filter>
<filter id="filter1_i_13_1165" x="56.0709" y="60.205" width="81.8882" height="93.5541" filterUnits="userSpaceOnUse" color-interpolation-filters="sRGB">
<feFlood flood-opacity="0" result="BackgroundImageFix"/>
<feBlend mode="normal" in="SourceGraphic" in2="BackgroundImageFix" result="shape"/>
<feColorMatrix in="SourceAlpha" type="matrix" values="0 0 0 0 0 0 0 0 0 0 0 0 0 0 0 0 0 0 127 0" result="hardAlpha"/>
<feOffset dy="4"/>
<feGaussianBlur stdDeviation="4"/>
<feComposite in2="hardAlpha" operator="arithmetic" k2="-1" k3="1"/>
<feColorMatrix type="matrix" values="0 0 0 0 1 0 0 0 0 1 0 0 0 0 1 0 0 0 0.55 0"/>
<feBlend mode="normal" in2="shape" result="effect1_innerShadow_13_1165"/>
</filter>
<linearGradient id="paint0_linear_13_1165" x1="99.3928" y1="52.7806" x2="83.0238" y2="151.895" gradientUnits="userSpaceOnUse">
<stop stop-color="#FFEE94"/>
<stop offset="1" stop-color="#FF9900"/>
</linearGradient>
</defs>
</svg>
