<svg width="227" height="245" viewBox="0 0 227 245" fill="none" xmlns="http://www.w3.org/2000/svg">
<g filter="url(#filter0_f_13_1148)">
<path d="M110.475 53.7764C99.5487 68.6116 97.654 88.8576 107.293 105.552C116.931 122.247 135.412 130.729 153.723 128.684C149.83 133.97 144.789 138.569 138.716 142.076C115.597 155.424 86.257 147.888 73.1839 125.245C60.1107 102.602 68.2545 73.4249 91.3736 60.0771C97.4473 56.5704 103.95 54.5051 110.475 53.7764Z" fill="#FFEE94"/>
</g>
<g filter="url(#filter1_i_13_1148)">
<path d="M109.456 60.0279C99.4823 73.5699 97.7528 92.0511 106.551 107.291C115.35 122.53 132.22 130.273 148.934 128.406C145.38 133.231 140.78 137.43 135.235 140.631C114.131 152.815 87.3492 145.936 75.4156 125.267C63.482 104.597 70.916 77.9637 92.0198 65.7794C97.5641 62.5784 103.5 60.6931 109.456 60.0279Z" fill="url(#paint0_linear_13_1148)"/>
</g>
<g filter="url(#filter2_b_13_1148)">
<g filter="url(#filter3_i_13_1148)">
<path d="M148.74 127.752C148.975 126.418 149.097 125.046 149.097 123.646C149.097 110.544 138.377 99.9231 125.154 99.9231C115.323 99.9231 106.876 105.793 103.188 114.188C100.201 111.633 96.3245 110.09 92.0884 110.09C82.6428 110.09 74.9857 117.761 74.9857 127.223C74.9857 127.75 75.0095 128.271 75.0559 128.786C70.5128 130.991 67.3845 135.617 67.3845 140.967C67.3845 148.454 73.5102 154.523 81.0667 154.523H145.677C153.233 154.523 159.359 148.454 159.359 140.967C159.359 134.524 154.822 129.13 148.74 127.752Z" fill="url(#paint1_linear_13_1148)"/>
</g>
</g>
<g filter="url(#filter4_di_13_1148)">
<path d="M92.1356 139.759C86.7202 146.887 79.1386 161.142 92.1356 161.142C105.133 161.142 97.5511 146.887 92.1356 139.759Z" fill="#00BCFF"/>
</g>
<g filter="url(#filter5_di_13_1148)">
<path d="M134.315 139.759C128.899 146.887 121.318 161.142 134.315 161.142C147.312 161.142 139.73 146.887 134.315 139.759Z" fill="#00BCFF"/>
</g>
<g filter="url(#filter6_di_13_1148)">
<path d="M114.104 169.343C108.689 176.471 101.107 190.726 114.104 190.726C127.101 190.726 119.519 176.471 114.104 169.343Z" fill="#00BCFF"/>
</g>
<g filter="url(#filter7_f_13_1148)">
<rect x="78.2223" y="156.162" width="70.2989" height="10.2519" rx="5.12596" fill="#00BCFF"/>
</g>
<defs>
<filter id="filter0_f_13_1148" x="13.9463" y="0.776428" width="192.777" height="200.9" filterUnits="userSpaceOnUse" color-interpolation-filters="sRGB">
<feFlood flood-opacity="0" result="BackgroundImageFix"/>
<feBlend mode="normal" in="SourceGraphic" in2="BackgroundImageFix" result="shape"/>
<feGaussianBlur stdDeviation="26.5" result="effect1_foregroundBlur_13_1148"/>
</filter>
<filter id="filter1_i_13_1148" x="69.7217" y="60.0279" width="79.2126" height="90.6282" filterUnits="userSpaceOnUse" color-interpolation-filters="sRGB">
<feFlood flood-opacity="0" result="BackgroundImageFix"/>
<feBlend mode="normal" in="SourceGraphic" in2="BackgroundImageFix" result="shape"/>
<feColorMatrix in="SourceAlpha" type="matrix" values="0 0 0 0 0 0 0 0 0 0 0 0 0 0 0 0 0 0 127 0" result="hardAlpha"/>
<feOffset dy="4"/>
<feGaussianBlur stdDeviation="4"/>
<feComposite in2="hardAlpha" operator="arithmetic" k2="-1" k3="1"/>
<feColorMatrix type="matrix" values="0 0 0 0 1 0 0 0 0 1 0 0 0 0 1 0 0 0 0.55 0"/>
<feBlend mode="normal" in2="shape" result="effect1_innerShadow_13_1148"/>
</filter>
<filter id="filter2_b_13_1148" x="40.3845" y="72.9231" width="145.974" height="108.6" filterUnits="userSpaceOnUse" color-interpolation-filters="sRGB">
<feFlood flood-opacity="0" result="BackgroundImageFix"/>
<feGaussianBlur in="BackgroundImageFix" stdDeviation="13.5"/>
<feComposite in2="SourceAlpha" operator="in" result="effect1_backgroundBlur_13_1148"/>
<feBlend mode="normal" in="SourceGraphic" in2="effect1_backgroundBlur_13_1148" result="shape"/>
</filter>
<filter id="filter3_i_13_1148" x="67.3845" y="99.9231" width="91.9744" height="64.5996" filterUnits="userSpaceOnUse" color-interpolation-filters="sRGB">
<feFlood flood-opacity="0" result="BackgroundImageFix"/>
<feBlend mode="normal" in="SourceGraphic" in2="BackgroundImageFix" result="shape"/>
<feColorMatrix in="SourceAlpha" type="matrix" values="0 0 0 0 0 0 0 0 0 0 0 0 0 0 0 0 0 0 127 0" result="hardAlpha"/>
<feOffset dy="11"/>
<feGaussianBlur stdDeviation="5"/>
<feComposite in2="hardAlpha" operator="arithmetic" k2="-1" k3="1"/>
<feColorMatrix type="matrix" values="0 0 0 0 1 0 0 0 0 1 0 0 0 0 1 0 0 0 1 0"/>
<feBlend mode="normal" in2="shape" result="effect1_innerShadow_13_1148"/>
</filter>
<filter id="filter4_di_13_1148" x="65.9593" y="139.759" width="52.3527" height="60.3826" filterUnits="userSpaceOnUse" color-interpolation-filters="sRGB">
<feFlood flood-opacity="0" result="BackgroundImageFix"/>
<feColorMatrix in="SourceAlpha" type="matrix" values="0 0 0 0 0 0 0 0 0 0 0 0 0 0 0 0 0 0 127 0" result="hardAlpha"/>
<feOffset dy="20"/>
<feGaussianBlur stdDeviation="9.5"/>
<feComposite in2="hardAlpha" operator="out"/>
<feColorMatrix type="matrix" values="0 0 0 0 0.283785 0 0 0 0 0.178889 0 0 0 0 0.933333 0 0 0 1 0"/>
<feBlend mode="normal" in2="BackgroundImageFix" result="effect1_dropShadow_13_1148"/>
<feBlend mode="normal" in="SourceGraphic" in2="effect1_dropShadow_13_1148" result="shape"/>
<feColorMatrix in="SourceAlpha" type="matrix" values="0 0 0 0 0 0 0 0 0 0 0 0 0 0 0 0 0 0 127 0" result="hardAlpha"/>
<feOffset dy="9"/>
<feGaussianBlur stdDeviation="1.5"/>
<feComposite in2="hardAlpha" operator="arithmetic" k2="-1" k3="1"/>
<feColorMatrix type="matrix" values="0 0 0 0 1 0 0 0 0 1 0 0 0 0 1 0 0 0 0.21 0"/>
<feBlend mode="normal" in2="shape" result="effect2_innerShadow_13_1148"/>
</filter>
<filter id="filter5_di_13_1148" x="108.139" y="139.759" width="52.3527" height="60.3826" filterUnits="userSpaceOnUse" color-interpolation-filters="sRGB">
<feFlood flood-opacity="0" result="BackgroundImageFix"/>
<feColorMatrix in="SourceAlpha" type="matrix" values="0 0 0 0 0 0 0 0 0 0 0 0 0 0 0 0 0 0 127 0" result="hardAlpha"/>
<feOffset dy="20"/>
<feGaussianBlur stdDeviation="9.5"/>
<feComposite in2="hardAlpha" operator="out"/>
<feColorMatrix type="matrix" values="0 0 0 0 0.283785 0 0 0 0 0.178889 0 0 0 0 0.933333 0 0 0 1 0"/>
<feBlend mode="normal" in2="BackgroundImageFix" result="effect1_dropShadow_13_1148"/>
<feBlend mode="normal" in="SourceGraphic" in2="effect1_dropShadow_13_1148" result="shape"/>
<feColorMatrix in="SourceAlpha" type="matrix" values="0 0 0 0 0 0 0 0 0 0 0 0 0 0 0 0 0 0 127 0" result="hardAlpha"/>
<feOffset dy="9"/>
<feGaussianBlur stdDeviation="1.5"/>
<feComposite in2="hardAlpha" operator="arithmetic" k2="-1" k3="1"/>
<feColorMatrix type="matrix" values="0 0 0 0 1 0 0 0 0 1 0 0 0 0 1 0 0 0 0.21 0"/>
<feBlend mode="normal" in2="shape" result="effect2_innerShadow_13_1148"/>
</filter>
<filter id="filter6_di_13_1148" x="87.9276" y="169.343" width="52.3527" height="60.3826" filterUnits="userSpaceOnUse" color-interpolation-filters="sRGB">
<feFlood flood-opacity="0" result="BackgroundImageFix"/>
<feColorMatrix in="SourceAlpha" type="matrix" values="0 0 0 0 0 0 0 0 0 0 0 0 0 0 0 0 0 0 127 0" result="hardAlpha"/>
<feOffset dy="20"/>
<feGaussianBlur stdDeviation="9.5"/>
<feComposite in2="hardAlpha" operator="out"/>
<feColorMatrix type="matrix" values="0 0 0 0 0.283785 0 0 0 0 0.178889 0 0 0 0 0.933333 0 0 0 1 0"/>
<feBlend mode="normal" in2="BackgroundImageFix" result="effect1_dropShadow_13_1148"/>
<feBlend mode="normal" in="SourceGraphic" in2="effect1_dropShadow_13_1148" result="shape"/>
<feColorMatrix in="SourceAlpha" type="matrix" values="0 0 0 0 0 0 0 0 0 0 0 0 0 0 0 0 0 0 127 0" result="hardAlpha"/>
<feOffset dy="9"/>
<feGaussianBlur stdDeviation="1.5"/>
<feComposite in2="hardAlpha" operator="arithmetic" k2="-1" k3="1"/>
<feColorMatrix type="matrix" values="0 0 0 0 1 0 0 0 0 1 0 0 0 0 1 0 0 0 0.21 0"/>
<feBlend mode="normal" in2="shape" result="effect2_innerShadow_13_1148"/>
</filter>
<filter id="filter7_f_13_1148" x="0.22229" y="78.1622" width="226.299" height="166.252" filterUnits="userSpaceOnUse" color-interpolation-filters="sRGB">
<feFlood flood-opacity="0" result="BackgroundImageFix"/>
<feBlend mode="normal" in="SourceGraphic" in2="BackgroundImageFix" result="shape"/>
<feGaussianBlur stdDeviation="39" result="effect1_foregroundBlur_13_1148"/>
</filter>
<linearGradient id="paint0_linear_13_1148" x1="111.628" y1="52.8462" x2="95.794" y2="148.722" gradientUnits="userSpaceOnUse">
<stop stop-color="#FFEE94"/>
<stop offset="1" stop-color="#FF9900"/>
</linearGradient>
<linearGradient id="paint1_linear_13_1148" x1="73.2345" y1="149.648" x2="166.021" y2="80.2607" gradientUnits="userSpaceOnUse">
<stop stop-color="white"/>
<stop offset="1" stop-color="white" stop-opacity="0.58"/>
</linearGradient>
</defs>
</svg>
