<svg width="262" height="173" viewBox="0 0 262 173" fill="none" xmlns="http://www.w3.org/2000/svg">
<g filter="url(#filter0_f_13_1166)">
<rect x="78.5641" y="79.3333" width="104.615" height="15.2564" rx="7.62821" fill="#00BCFF"/>
</g>
<g filter="url(#filter1_b_13_1166)">
<g filter="url(#filter2_i_13_1166)">
<path d="M183.069 41.4139C183.419 39.4289 183.601 37.387 183.601 35.3028C183.601 15.8056 167.648 0 147.969 0C133.339 0 120.769 8.73524 115.281 21.2285C110.836 17.4258 105.067 15.1298 98.7631 15.1298C84.7067 15.1298 73.3117 26.5449 73.3117 40.6263C73.3117 41.4104 73.3471 42.1862 73.4162 42.9523C66.6554 46.2333 62 53.1177 62 61.0795C62 72.2207 71.116 81.2525 82.3611 81.2525H178.511C189.756 81.2525 198.872 72.2207 198.872 61.0795C198.872 51.4909 192.12 43.4647 183.069 41.4139Z" fill="url(#paint0_linear_13_1166)"/>
</g>
</g>
<circle cx="103" cy="99" r="7" fill="#D9D9D9"/>
<circle cx="131" cy="113" r="7" fill="#D9D9D9"/>
<circle cx="159" cy="99" r="7" fill="#D9D9D9"/>
<defs>
<filter id="filter0_f_13_1166" x="0.564087" y="1.33331" width="260.615" height="171.256" filterUnits="userSpaceOnUse" color-interpolation-filters="sRGB">
<feFlood flood-opacity="0" result="BackgroundImageFix"/>
<feBlend mode="normal" in="SourceGraphic" in2="BackgroundImageFix" result="shape"/>
<feGaussianBlur stdDeviation="39" result="effect1_foregroundBlur_13_1166"/>
</filter>
<filter id="filter1_b_13_1166" x="35" y="-27" width="190.872" height="135.253" filterUnits="userSpaceOnUse" color-interpolation-filters="sRGB">
<feFlood flood-opacity="0" result="BackgroundImageFix"/>
<feGaussianBlur in="BackgroundImageFix" stdDeviation="13.5"/>
<feComposite in2="SourceAlpha" operator="in" result="effect1_backgroundBlur_13_1166"/>
<feBlend mode="normal" in="SourceGraphic" in2="effect1_backgroundBlur_13_1166" result="shape"/>
</filter>
<filter id="filter2_i_13_1166" x="62" y="0" width="136.872" height="91.2525" filterUnits="userSpaceOnUse" color-interpolation-filters="sRGB">
<feFlood flood-opacity="0" result="BackgroundImageFix"/>
<feBlend mode="normal" in="SourceGraphic" in2="BackgroundImageFix" result="shape"/>
<feColorMatrix in="SourceAlpha" type="matrix" values="0 0 0 0 0 0 0 0 0 0 0 0 0 0 0 0 0 0 127 0" result="hardAlpha"/>
<feOffset dy="11"/>
<feGaussianBlur stdDeviation="5"/>
<feComposite in2="hardAlpha" operator="arithmetic" k2="-1" k3="1"/>
<feColorMatrix type="matrix" values="0 0 0 0 1 0 0 0 0 1 0 0 0 0 1 0 0 0 1 0"/>
<feBlend mode="normal" in2="shape" result="effect1_innerShadow_13_1166"/>
</filter>
<linearGradient id="paint0_linear_13_1166" x1="70.7057" y1="73.9978" x2="208.787" y2="-29.2606" gradientUnits="userSpaceOnUse">
<stop stop-color="white"/>
<stop offset="1" stop-color="white" stop-opacity="0.58"/>
</linearGradient>
</defs>
</svg>
