<svg width="60" height="60" viewBox="0 0 60 60" fill="none" xmlns="http://www.w3.org/2000/svg">
<path d="M40.32 16.458H46.542C46.7664 16.458 46.9816 16.3689 47.1402 16.2102C47.2989 16.0515 47.388 15.8364 47.388 15.612C47.388 15.3876 47.2989 15.1724 47.1402 15.0138C46.9816 14.8551 46.7664 14.766 46.542 14.766H40.32C40.0956 14.766 39.8804 14.8551 39.7218 15.0138C39.5631 15.1724 39.474 15.3876 39.474 15.612C39.474 15.8364 39.5631 16.0515 39.7218 16.2102C39.8804 16.3689 40.0956 16.458 40.32 16.458Z" fill="white"/>
<path d="M30 51.24C29.6252 51.241 29.2506 51.2209 28.878 51.18C26.7653 50.942 24.7815 50.0432 23.2095 48.6117C21.6375 47.1802 20.5575 45.2891 20.1232 43.2078C19.689 41.1265 19.9228 38.9612 20.7913 37.0206C21.6598 35.0799 23.1187 33.4629 24.96 32.4V14.304C24.9606 13.5551 25.1278 12.8158 25.4496 12.1396C25.7714 11.4634 26.2396 10.8673 26.8204 10.3945C27.4012 9.92177 28.0799 9.58419 28.8073 9.40629C29.5347 9.22839 30.2926 9.21463 31.026 9.36601C32.1779 9.61918 33.2069 10.2629 33.9385 11.188C34.67 12.1131 35.0592 13.2627 35.04 14.442V32.4C36.9675 33.5088 38.4749 35.2231 39.3279 37.2766C40.181 39.3302 40.3319 41.6079 39.7572 43.7561C39.1825 45.9042 37.9145 47.8024 36.1501 49.1557C34.3857 50.5091 32.2237 51.2418 30 51.24V51.24ZM30 11.958C29.3793 11.9612 28.7851 12.2095 28.3468 12.649C27.9084 13.0884 27.6616 13.6833 27.66 14.304V34.104L26.88 34.464C25.3526 35.1744 24.1135 36.3848 23.3673 37.895C22.6212 39.4052 22.4128 41.1249 22.7766 42.7696C23.1404 44.4144 24.0546 45.8857 25.368 46.9404C26.6815 47.9951 28.3155 48.5699 30 48.5699C31.6845 48.5699 33.3185 47.9951 34.632 46.9404C35.9454 45.8857 36.8596 44.4144 37.2234 42.7696C37.5872 41.1249 37.3788 39.4052 36.6327 37.895C35.8865 36.3848 34.6474 35.1744 33.12 34.464L32.34 34.104V14.442C32.3559 13.8863 32.1821 13.3417 31.8474 12.8979C31.5126 12.4541 31.0367 12.1374 30.498 12C30.3339 11.9687 30.167 11.9546 30 11.958V11.958Z" fill="white"/>
<path d="M30.006 43.446C31.58 43.446 32.856 42.17 32.856 40.596C32.856 39.022 31.58 37.746 30.006 37.746C28.432 37.746 27.156 39.022 27.156 40.596C27.156 42.17 28.432 43.446 30.006 43.446Z" fill="white"/>
<path d="M30 39.6C29.8011 39.6 29.6103 39.521 29.4697 39.3803C29.329 39.2397 29.25 39.0489 29.25 38.85V28.968C29.25 28.7691 29.329 28.5783 29.4697 28.4377C29.6103 28.297 29.8011 28.218 30 28.218C30.1989 28.218 30.3897 28.297 30.5303 28.4377C30.671 28.5783 30.75 28.7691 30.75 28.968V38.826C30.7532 38.9265 30.7362 39.0266 30.6999 39.1204C30.6637 39.2142 30.609 39.2997 30.539 39.3719C30.469 39.4441 30.3853 39.5015 30.2927 39.5407C30.2001 39.5799 30.1005 39.6001 30 39.6Z" fill="white"/>
</svg>
