<svg width="228" height="245" viewBox="0 0 228 245" fill="none" xmlns="http://www.w3.org/2000/svg">
<g filter="url(#filter0_f_17_165)">
<path d="M110.962 53.5457C100.036 68.3808 98.1412 88.6268 107.78 105.321C117.418 122.016 135.899 130.498 154.21 128.453C150.317 133.739 145.277 138.339 139.203 141.845C116.084 155.193 86.7442 147.657 73.671 125.014C60.5979 102.371 68.7417 73.1941 91.8608 59.8463C97.9345 56.3397 104.438 54.2744 110.962 53.5457Z" fill="#FFEE94"/>
</g>
<g filter="url(#filter1_i_17_165)">
<path d="M109.944 59.7971C99.9695 73.3392 98.24 91.8204 107.038 107.06C115.837 122.299 132.707 130.042 149.422 128.175C145.868 133.001 141.267 137.199 135.722 140.4C114.619 152.584 87.8365 145.706 75.9029 125.036C63.9693 104.366 71.4032 77.7329 92.5071 65.5486C98.0514 62.3476 103.988 60.4623 109.944 59.7971Z" fill="url(#paint0_linear_17_165)"/>
</g>
<g filter="url(#filter2_b_17_165)">
<g filter="url(#filter3_i_17_165)">
<path d="M149.227 127.521C149.462 126.188 149.585 124.815 149.585 123.415C149.585 110.313 138.865 99.6923 125.641 99.6923C115.81 99.6923 107.363 105.562 103.676 113.957C100.688 111.402 96.8118 109.859 92.5757 109.859C83.1302 109.859 75.473 117.53 75.473 126.992C75.473 127.519 75.4968 128.04 75.5432 128.555C71.0001 130.76 67.8718 135.386 67.8718 140.736C67.8718 148.223 73.9975 154.292 81.554 154.292H146.164C153.72 154.292 159.846 148.223 159.846 140.736C159.846 134.293 155.309 128.9 149.227 127.521Z" fill="url(#paint1_linear_17_165)"/>
</g>
</g>
<g filter="url(#filter4_f_17_165)">
<rect x="78.7095" y="155.931" width="70.2989" height="10.2519" rx="5.12596" fill="#00BCFF"/>
</g>
<g filter="url(#filter5_di_17_165)">
<path d="M88.2692 175C82.8417 182.12 75.2432 196.359 88.2692 196.359C101.295 196.359 93.6967 182.12 88.2692 175Z" fill="#00BCFF"/>
</g>
<g filter="url(#filter6_di_17_165)">
<path d="M147.115 142C141.688 149.12 134.089 163.359 147.115 163.359C160.141 163.359 152.543 149.12 147.115 142Z" fill="#00BCFF"/>
</g>
<defs>
<filter id="filter0_f_17_165" x="14.4335" y="0.545685" width="192.777" height="200.9" filterUnits="userSpaceOnUse" color-interpolation-filters="sRGB">
<feFlood flood-opacity="0" result="BackgroundImageFix"/>
<feBlend mode="normal" in="SourceGraphic" in2="BackgroundImageFix" result="shape"/>
<feGaussianBlur stdDeviation="26.5" result="effect1_foregroundBlur_17_165"/>
</filter>
<filter id="filter1_i_17_165" x="70.209" y="59.7971" width="79.2126" height="90.6281" filterUnits="userSpaceOnUse" color-interpolation-filters="sRGB">
<feFlood flood-opacity="0" result="BackgroundImageFix"/>
<feBlend mode="normal" in="SourceGraphic" in2="BackgroundImageFix" result="shape"/>
<feColorMatrix in="SourceAlpha" type="matrix" values="0 0 0 0 0 0 0 0 0 0 0 0 0 0 0 0 0 0 127 0" result="hardAlpha"/>
<feOffset dy="4"/>
<feGaussianBlur stdDeviation="4"/>
<feComposite in2="hardAlpha" operator="arithmetic" k2="-1" k3="1"/>
<feColorMatrix type="matrix" values="0 0 0 0 1 0 0 0 0 1 0 0 0 0 1 0 0 0 0.55 0"/>
<feBlend mode="normal" in2="shape" result="effect1_innerShadow_17_165"/>
</filter>
<filter id="filter2_b_17_165" x="40.8718" y="72.6923" width="145.974" height="108.6" filterUnits="userSpaceOnUse" color-interpolation-filters="sRGB">
<feFlood flood-opacity="0" result="BackgroundImageFix"/>
<feGaussianBlur in="BackgroundImageFix" stdDeviation="13.5"/>
<feComposite in2="SourceAlpha" operator="in" result="effect1_backgroundBlur_17_165"/>
<feBlend mode="normal" in="SourceGraphic" in2="effect1_backgroundBlur_17_165" result="shape"/>
</filter>
<filter id="filter3_i_17_165" x="67.8718" y="99.6923" width="91.9744" height="64.5996" filterUnits="userSpaceOnUse" color-interpolation-filters="sRGB">
<feFlood flood-opacity="0" result="BackgroundImageFix"/>
<feBlend mode="normal" in="SourceGraphic" in2="BackgroundImageFix" result="shape"/>
<feColorMatrix in="SourceAlpha" type="matrix" values="0 0 0 0 0 0 0 0 0 0 0 0 0 0 0 0 0 0 127 0" result="hardAlpha"/>
<feOffset dy="11"/>
<feGaussianBlur stdDeviation="5"/>
<feComposite in2="hardAlpha" operator="arithmetic" k2="-1" k3="1"/>
<feColorMatrix type="matrix" values="0 0 0 0 1 0 0 0 0 1 0 0 0 0 1 0 0 0 1 0"/>
<feBlend mode="normal" in2="shape" result="effect1_innerShadow_17_165"/>
</filter>
<filter id="filter4_f_17_165" x="0.709473" y="77.9314" width="226.299" height="166.252" filterUnits="userSpaceOnUse" color-interpolation-filters="sRGB">
<feFlood flood-opacity="0" result="BackgroundImageFix"/>
<feBlend mode="normal" in="SourceGraphic" in2="BackgroundImageFix" result="shape"/>
<feGaussianBlur stdDeviation="39" result="effect1_foregroundBlur_17_165"/>
</filter>
<filter id="filter5_di_17_165" x="62.0769" y="175" width="52.3846" height="60.359" filterUnits="userSpaceOnUse" color-interpolation-filters="sRGB">
<feFlood flood-opacity="0" result="BackgroundImageFix"/>
<feColorMatrix in="SourceAlpha" type="matrix" values="0 0 0 0 0 0 0 0 0 0 0 0 0 0 0 0 0 0 127 0" result="hardAlpha"/>
<feOffset dy="20"/>
<feGaussianBlur stdDeviation="9.5"/>
<feComposite in2="hardAlpha" operator="out"/>
<feColorMatrix type="matrix" values="0 0 0 0 0.283785 0 0 0 0 0.178889 0 0 0 0 0.933333 0 0 0 1 0"/>
<feBlend mode="normal" in2="BackgroundImageFix" result="effect1_dropShadow_17_165"/>
<feBlend mode="normal" in="SourceGraphic" in2="effect1_dropShadow_17_165" result="shape"/>
<feColorMatrix in="SourceAlpha" type="matrix" values="0 0 0 0 0 0 0 0 0 0 0 0 0 0 0 0 0 0 127 0" result="hardAlpha"/>
<feOffset dy="9"/>
<feGaussianBlur stdDeviation="1.5"/>
<feComposite in2="hardAlpha" operator="arithmetic" k2="-1" k3="1"/>
<feColorMatrix type="matrix" values="0 0 0 0 1 0 0 0 0 1 0 0 0 0 1 0 0 0 0.21 0"/>
<feBlend mode="normal" in2="shape" result="effect2_innerShadow_17_165"/>
</filter>
<filter id="filter6_di_17_165" x="120.923" y="142" width="52.3846" height="60.359" filterUnits="userSpaceOnUse" color-interpolation-filters="sRGB">
<feFlood flood-opacity="0" result="BackgroundImageFix"/>
<feColorMatrix in="SourceAlpha" type="matrix" values="0 0 0 0 0 0 0 0 0 0 0 0 0 0 0 0 0 0 127 0" result="hardAlpha"/>
<feOffset dy="20"/>
<feGaussianBlur stdDeviation="9.5"/>
<feComposite in2="hardAlpha" operator="out"/>
<feColorMatrix type="matrix" values="0 0 0 0 0.283785 0 0 0 0 0.178889 0 0 0 0 0.933333 0 0 0 1 0"/>
<feBlend mode="normal" in2="BackgroundImageFix" result="effect1_dropShadow_17_165"/>
<feBlend mode="normal" in="SourceGraphic" in2="effect1_dropShadow_17_165" result="shape"/>
<feColorMatrix in="SourceAlpha" type="matrix" values="0 0 0 0 0 0 0 0 0 0 0 0 0 0 0 0 0 0 127 0" result="hardAlpha"/>
<feOffset dy="9"/>
<feGaussianBlur stdDeviation="1.5"/>
<feComposite in2="hardAlpha" operator="arithmetic" k2="-1" k3="1"/>
<feColorMatrix type="matrix" values="0 0 0 0 1 0 0 0 0 1 0 0 0 0 1 0 0 0 0.21 0"/>
<feBlend mode="normal" in2="shape" result="effect2_innerShadow_17_165"/>
</filter>
<linearGradient id="paint0_linear_17_165" x1="112.115" y1="52.6154" x2="96.2813" y2="148.491" gradientUnits="userSpaceOnUse">
<stop stop-color="#FFEE94"/>
<stop offset="1" stop-color="#FF9900"/>
</linearGradient>
<linearGradient id="paint1_linear_17_165" x1="73.7218" y1="149.417" x2="166.509" y2="80.03" gradientUnits="userSpaceOnUse">
<stop stop-color="white"/>
<stop offset="1" stop-color="white" stop-opacity="0.58"/>
</linearGradient>
</defs>
</svg>
